# xmcd
# 
# Track frame offsets:
#     150
#     70651
#     108488
#     154314
#     245475
# 
# Disc length: 4609
# 
# Revision: 1
# Processed by: cddbd v1.5.2PL0 Copyright (c) Steve Scherf et al.
# Submitted via: fre:ac v1.0.17
# 
DISCID=3d11ff05
DTITLE=Mariss Jansons: Symphonieoechester des Bayerischen Rundfunks - Mahler  Welt und Traum - eine Horobiografie
DYEAR=2010
DGENRE=Classical
TTITLE0=Gustav Mahler  Symphonie Nr. 1 D-Dur - 1. Langsam. Schleppend. Wie ein Naturlaut
TTITLE1=2. Kraftig bewegt  doch nicht zu schnell
TTITLE2=3. Feierlich und gemessen, ohne zu schleppen
TTITLE3=4. Sturmisch bewegt
TTITLE4=Kapitel 1 - Wo die schonen Trompeten blasen - Kindheit in Iglau
EXTD=
EXTT0=
EXTT1=
EXTT2=
EXTT3=
EXTT4=
PLAYORDER=
